<?xml version="1.0" encoding="utf-8"?>
<!-- Generator: Adobe Illustrator 28.0.0, SVG Export Plug-In . SVG Version: 6.00 Build 0)  -->
<svg version="1.1" id="Capa_1" xmlns="http://www.w3.org/2000/svg" xmlns:xlink="http://www.w3.org/1999/xlink" x="0px" y="0px"
	 viewBox="0 0 634 879" style="enable-background:new 0 0 634 879;" xml:space="preserve">
<style type="text/css">
	.st0{clip-path:url(#SVGID_00000180365155689736259290000014176420306542010045_);}
	.st1{fill:#D3DCF2;}
	.st2{fill:#FFFFFF;}
	.st3{fill:#1B043F;}
	.st4{opacity:0.4;fill-rule:evenodd;clip-rule:evenodd;fill:#1B043F;enable-background:new    ;}
	.st5{fill-rule:evenodd;clip-rule:evenodd;fill:#1B043F;}
</style>
<g>
	<g>
		<defs>
			<rect id="SVGID_1_" width="633.2" height="879"/>
		</defs>
		<clipPath id="SVGID_00000099624689930582606040000013014579215445751716_">
			<use xlink:href="#SVGID_1_"  style="overflow:visible;"/>
		</clipPath>
		<g style="clip-path:url(#SVGID_00000099624689930582606040000013014579215445751716_);">
			<path class="st1" d="M618.2,14.9c-3.9-3.9-8.5-7-13.5-9c-5.1-2.1-10.5-3.2-16-3.1h-547c-5.5,0-10.9,1.1-15.9,3.2
				c-5.1,2.1-9.6,5.2-13.5,9c-3.9,3.9-6.9,8.5-9,13.5C1.1,33.5,0,38.9,0,44.3v793c0,5.5,1.1,10.9,3.2,15.9c2.1,5.1,5.2,9.6,9,13.5
				c3.9,3.9,8.5,6.9,13.5,9c5.1,2.1,10.5,3.2,15.9,3.2h547.1c11.1,0,21.6-4.4,29.5-12.2c7.8-7.8,12.2-18.4,12.2-29.5v-793
				c0-5.5-1.1-10.9-3.2-15.9C625.2,23.3,622.1,18.8,618.2,14.9z M626.4,837.3c0,4.9-1,9.8-2.9,14.4c-1.9,4.6-4.7,8.7-8.2,12.2
				s-7.6,6.3-12.2,8.2c-4.6,1.9-9.5,2.9-14.4,2.9h-547c-4.9,0-9.8-1-14.4-2.9s-8.7-4.7-12.2-8.2s-6.3-7.6-8.2-12.2
				C5,847.2,4,842.3,4,837.3v-793c0-4.9,1-9.8,2.9-14.4s4.7-8.7,8.2-12.2s7.6-6.3,12.2-8.2s9.5-2.9,14.4-2.9h547.1
				c4.9,0,9.8,1,14.4,2.9c4.6,1.9,8.7,4.7,12.2,8.2s6.3,7.6,8.2,12.2s2.9,9.5,2.9,14.4v793H626.4z"/>
			<path class="st1" d="M590,28.4H40.6c-3.9,0-7.6,1.5-10.4,4.3c-2.7,2.7-4.3,6.5-4.3,10.3v795.6c0,3.9,1.6,7.6,4.3,10.3
				s6.5,4.3,10.4,4.3H590c3.9,0,7.6-1.5,10.4-4.3c2.8-2.7,4.3-6.5,4.3-10.3V43c0-3.9-1.6-7.6-4.3-10.3
				C597.6,29.9,593.8,28.4,590,28.4z M603.4,838.6c0,3.5-1.4,6.9-3.9,9.5c-2.5,2.5-5.9,3.9-9.5,3.9H40.6c-3.5,0-7-1.4-9.5-3.9
				s-3.9-5.9-3.9-9.5V43c0-3.5,1.4-6.9,3.9-9.5s5.9-3.9,9.5-3.9H590c3.5,0,7,1.4,9.5,3.9s3.9,5.9,3.9,9.5V838.6z"/>
			<path class="st1" d="M588.8,6.7H41.7c-4.9,0-9.8,1-14.4,2.9s-8.7,4.7-12.2,8.2S8.8,25.4,6.9,30C5,34.5,4,39.4,4,44.3v793
				c0,4.9,1,9.8,2.9,14.4c1.9,4.6,4.7,8.7,8.2,12.2s7.6,6.3,12.2,8.2s9.5,2.9,14.4,2.9h547.1c4.9,0,9.8-1,14.4-2.9
				c4.6-1.9,8.7-4.7,12.2-8.2s6.3-7.6,8.2-12.2c1.9-4.6,2.9-9.5,2.9-14.4v-793c0-4.9-1-9.8-2.9-14.4s-4.7-8.7-8.2-12.2
				s-7.6-6.3-12.2-8.2C598.6,7.7,593.7,6.7,588.8,6.7z M604.6,838.6c0,3.9-1.6,7.6-4.3,10.3c-2.8,2.7-6.5,4.3-10.4,4.3H40.6
				c-3.9,0-7.6-1.5-10.4-4.3c-2.7-2.7-4.3-6.5-4.3-10.3V43.1c0-3.9,1.6-7.6,4.3-10.3s6.5-4.3,10.4-4.3H590c3.9,0,7.6,1.5,10.4,4.3
				c2.8,2.7,4.3,6.5,4.3,10.3v795.5H604.6z"/>
			<path class="st1" d="M544.3,1.4v1.3h38.9V1.4c0-0.8-0.5-1.4-1.2-1.4h-36.5C544.8,0,544.3,0.6,544.3,1.4z"/>
			<path class="st1" d="M630.4,74.3v38.9h1.2c0.8,0,1.5-0.5,1.5-1.2V75.5c0-0.7-0.7-1.2-1.5-1.2H630.4z"/>
			<path class="st1" d="M630.4,120.4v38.9h1.2c0.8,0,1.5-0.5,1.5-1.2v-36.5c0-0.7-0.7-1.2-1.5-1.2
				C631.6,120.4,630.4,120.4,630.4,120.4z"/>
		</g>
	</g>
</g>
<path class="st2" d="M27,45c0-8.8,7.2-16,16-16h544c8.8,0,16,7.2,16,16v27H27V45z"/>
<path class="st2" d="M603,839c0,8.8-7.2,16-16,16H43c-8.8,0-16-7.2-16-16v-27h576V839z"/>
<path class="st3" d="M551.5,47.2c2.2,0,4.3,0.8,5.8,2.3c0.1,0.1,0.3,0.1,0.4,0l1.1-1.2c0.1-0.1,0.1-0.1,0.1-0.2c0-0.1,0-0.2-0.1-0.2
	c-4.1-4-10.7-4-14.8,0c-0.1,0.1-0.1,0.1-0.1,0.2c0,0.1,0,0.2,0.1,0.2l1.1,1.2c0.1,0.1,0.3,0.1,0.4,0
	C547.2,48.1,549.3,47.2,551.5,47.2z M551.5,51c1.2,0,2.3,0.4,3.2,1.3c0.1,0.1,0.3,0.1,0.4,0l1.1-1.2c0.1-0.1,0.1-0.1,0.1-0.2
	c0-0.1,0-0.2-0.1-0.2c-2.7-2.5-6.9-2.5-9.6,0c-0.1,0.1-0.1,0.1-0.1,0.2c0,0.1,0,0.2,0.1,0.2l1.1,1.2c0.1,0.1,0.3,0.1,0.4,0
	C549.2,51.4,550.3,51,551.5,51z M553.7,53.8c0.1-0.1,0.1-0.1,0.1-0.2c0-0.1,0-0.2-0.1-0.2c-1.3-1.1-3.1-1.1-4.3,0
	c-0.1,0.1-0.1,0.1-0.1,0.2c0,0.1,0,0.2,0.1,0.2l2,2c0.1,0.1,0.1,0.1,0.2,0.1c0.1,0,0.2,0,0.2-0.1L553.7,53.8z"/>
<path class="st3" d="M565.7,47.9c0-0.6,0.5-1.2,1.2-1.2h15.9c0.6,0,1.2,0.5,1.2,1.2v5.5c0,0.6-0.5,1.2-1.2,1.2h-15.9
	c-0.6,0-1.2-0.5-1.2-1.2V47.9z"/>
<path class="st4" d="M566.9,45.9h15.9c1.1,0,2,0.9,2,2v5.5c0,1.1-0.9,2-2,2h-15.9c-1.1,0-2-0.9-2-2v-5.5
	C564.9,46.8,565.8,45.9,566.9,45.9z M564,47.9c0-1.6,1.3-2.9,2.9-2.9h15.9c1.6,0,2.9,1.3,2.9,2.9v5.5c0,1.6-1.3,2.9-2.9,2.9h-15.9
	c-1.6,0-2.9-1.3-2.9-2.9V47.9z M588,50.6c0,0.9-0.6,1.6-1.4,1.8v-3.7C587.4,49,588,49.7,588,50.6z"/>
<path class="st5" d="M536.9,46c-0.6,0-1,0.4-1,1v8.3c0,0.6,0.4,1,1,1h1.1c0.6,0,1-0.4,1-1V47c0-0.6-0.4-1-1-1H536.9z M531.3,49.1
	c0-0.6,0.4-1,1-1h1.1c0.6,0,1,0.4,1,1v6.2c0,0.6-0.4,1-1,1h-1.1c-0.6,0-1-0.4-1-1V49.1z M527.6,50.1c-0.6,0-1,0.4-1,1v4.2
	c0,0.6,0.4,1,1,1h1.1c0.6,0,1-0.4,1-1v-4.2c0-0.6-0.4-1-1-1H527.6z M523,56.3c-0.6,0-1-0.5-1-1v-2.6c0-0.6,0.5-1,1-1h1
	c0.6,0,1,0.5,1,1v2.6c0,0.6-0.5,1-1,1H523z"/>
<path class="st3" d="M63.5,56l4.6-9v-0.1h-5.3v-1.1h6.5V47l-4.5,9H63.5z M71.3,54.7c-0.2,0-0.5-0.1-0.6-0.3
	c-0.2-0.2-0.3-0.4-0.3-0.6c0-0.2,0.1-0.5,0.3-0.6c0.2-0.2,0.4-0.3,0.6-0.3s0.5,0.1,0.6,0.3c0.2,0.2,0.3,0.4,0.3,0.6
	c0,0.2,0,0.3-0.1,0.4c-0.1,0.1-0.2,0.2-0.3,0.3C71.6,54.7,71.5,54.7,71.3,54.7z M71.3,49.5c-0.2,0-0.5-0.1-0.6-0.3
	c-0.2-0.2-0.3-0.4-0.3-0.6s0.1-0.5,0.3-0.6c0.2-0.2,0.4-0.3,0.6-0.3s0.5,0.1,0.6,0.3c0.2,0.2,0.3,0.4,0.3,0.6c0,0.2,0,0.3-0.1,0.4
	c-0.1,0.1-0.2,0.2-0.3,0.3C71.6,49.5,71.5,49.5,71.3,49.5z M77.3,56.1c-0.7,0-1.4-0.2-1.9-0.6c-0.5-0.4-0.9-1-1.2-1.8
	c-0.3-0.8-0.4-1.7-0.4-2.8s0.1-2,0.4-2.8s0.7-1.4,1.2-1.8c0.5-0.4,1.2-0.6,1.9-0.6c0.7,0,1.4,0.2,1.9,0.6c0.5,0.4,0.9,1,1.2,1.8
	c0.3,0.8,0.4,1.7,0.4,2.8s-0.1,2.1-0.4,2.8c-0.3,0.8-0.7,1.4-1.2,1.8C78.7,55.9,78.1,56.1,77.3,56.1z M77.3,55
	c0.7,0,1.3-0.4,1.7-1.1c0.4-0.7,0.6-1.7,0.6-3.1c0-0.9-0.1-1.6-0.3-2.3c-0.2-0.6-0.5-1.1-0.8-1.4c-0.3-0.3-0.8-0.5-1.3-0.5
	c-0.7,0-1.3,0.4-1.7,1.1c-0.4,0.7-0.6,1.7-0.6,3.1c0,0.9,0.1,1.6,0.3,2.2c0.2,0.6,0.5,1.1,0.8,1.4C76.4,54.9,76.8,55,77.3,55z
	 M82.5,56v-0.9l3.4-3.7c0.4-0.4,0.7-0.8,1-1.1s0.4-0.6,0.6-0.9c0.1-0.3,0.2-0.6,0.2-0.9c0-0.4-0.1-0.7-0.3-0.9
	c-0.2-0.3-0.4-0.5-0.7-0.6c-0.3-0.1-0.6-0.2-1-0.2s-0.7,0.1-1,0.2c-0.3,0.2-0.5,0.4-0.7,0.7s-0.2,0.6-0.2,1h-1.2
	c0-0.6,0.1-1.1,0.4-1.6s0.6-0.8,1.1-1.1s1-0.4,1.6-0.4s1.1,0.1,1.6,0.4s0.8,0.6,1.1,1c0.3,0.4,0.4,0.9,0.4,1.4
	c0,0.4-0.1,0.7-0.2,1.1c-0.1,0.4-0.4,0.8-0.7,1.2c-0.3,0.4-0.8,1-1.4,1.6l-2.3,2.4v0.1h4.7V56H82.5z"/>
</svg>
