<?xml version="1.0" encoding="utf-8"?>
<!-- Generator: Adobe Illustrator 28.0.0, SVG Export Plug-In . SVG Version: 6.00 Build 0)  -->
<svg version="1.1" id="Capa_1" xmlns="http://www.w3.org/2000/svg" xmlns:xlink="http://www.w3.org/1999/xlink" x="0px" y="0px"
	 viewBox="0 0 446 898.2" style="enable-background:new 0 0 446 898.2;" xml:space="preserve">
<style type="text/css">
	.st0{clip-path:url(#SVGID_00000065032625758191227050000006505095300863162792_);}
	.st1{fill:#FFFFFF;}
	.st2{clip-path:url(#SVGID_00000075131581161215230190000017212444758202584716_);}
	.st3{clip-path:url(#SVGID_00000070807195553662338340000006243776224457454221_);}
	.st4{fill:#D3DCF2;}
	.st5{fill:#1B043F;}
	.st6{fill-rule:evenodd;clip-rule:evenodd;fill:#1B043F;}
	.st7{opacity:0.4;fill-rule:evenodd;clip-rule:evenodd;fill:#1B043F;enable-background:new    ;}
</style>
<g>
	<g>
		<g>
			<g>
				<defs>
					<path id="SVGID_1_" d="M11.2,57.5V71h425.6V57.5c0-28.7-23.3-52-52-52H63.2C34.4,5.5,11.2,28.7,11.2,57.5z"/>
				</defs>
				<clipPath id="SVGID_00000087374761194095851770000016971056625726073522_">
					<use xlink:href="#SVGID_1_"  style="overflow:visible;"/>
				</clipPath>
				<g style="clip-path:url(#SVGID_00000087374761194095851770000016971056625726073522_);">
					<rect x="-33.4" y="-21.8" class="st1" width="519" height="110"/>
				</g>
			</g>
		</g>
	</g>
</g>
<g>
	<g>
		<g>
			<g>
				<defs>
					<path id="SVGID_00000150801984615064610450000007863920073557996960_" d="M436.8,833.5v3.5H11.2v-3.5c0,28.7,23.3,52,52,52
						h321.6C413.6,885.5,436.8,862.3,436.8,833.5z"/>
				</defs>
				<clipPath id="SVGID_00000026132881702427568540000002419485067098634667_">
					<use xlink:href="#SVGID_00000150801984615064610450000007863920073557996960_"  style="overflow:visible;"/>
				</clipPath>
				<g style="clip-path:url(#SVGID_00000026132881702427568540000002419485067098634667_);">
					<rect x="-37.6" y="802.8" class="st1" width="519" height="110"/>
				</g>
			</g>
		</g>
	</g>
</g>
<g>
	<g>
		<g>
			<g>
				<g>
					<defs>
						<rect id="SVGID_00000076603864648191369050000018388033200488833972_" x="-30.4" y="-19.8" width="519" height="917.1"/>
					</defs>
					<clipPath id="SVGID_00000179643938099937819410000014200779332270460846_">
						<use xlink:href="#SVGID_00000076603864648191369050000018388033200488833972_"  style="overflow:visible;"/>
					</clipPath>
					<g style="clip-path:url(#SVGID_00000179643938099937819410000014200779332270460846_);">
						<path class="st4" d="M444,239.9c-0.6-0.6-1.4-1-2.3-1h-0.1l1.1-172.7c0-17.6-0.9-34.1-13.3-46.6S400.2,0.2,382.6,0.2H75.9
							c-9.4,0-18.7,1.9-27.3,5.4c-8.7,3.6-16.5,8.9-23.2,15.6C18.8,27.8,13.6,35.7,10,44.4s-5.4,18-5.4,27.4v76.4H3.4
							c-0.4,0-0.8,0.2-1.1,0.5s-0.5,0.7-0.5,1.1v42.1c0,0.4,0.2,0.9,0.5,1.2s0.7,0.5,1.2,0.5h1.1v21.9H3.9c-0.9,0-1.7,0.3-2.3,1
							c-0.6,0.6-1,1.4-1,2.3v83.7c0,0.4,0.1,0.9,0.2,1.3c0.2,0.4,0.4,0.8,0.7,1.1c0.3,0.3,0.7,0.6,1.1,0.7c0.4,0.2,0.8,0.3,1.3,0.3
							h0.7v17.3H4c-0.9,0-1.7,0.3-2.3,1c-0.6,0.6-1,1.4-1,2.3v83.7c0,0.4,0.1,0.9,0.2,1.3c0.2,0.4,0.4,0.8,0.7,1.1
							c0.3,0.3,0.7,0.6,1.1,0.7c0.4,0.2,0.8,0.3,1.3,0.3h0.7v417.3c0,8.7,1.7,17.3,5,25.4c3.3,8.1,8.2,15.4,14.3,21.5
							c6.1,6.2,13.4,11.1,21.5,14.4c8,3.3,16.6,5.1,25.3,5.1h307.7c36.5,0,65.2-29.7,65.2-66.4l-2.8-463.3h0.9
							c0.4,0,0.9-0.1,1.3-0.3c0.4-0.2,0.8-0.4,1.1-0.7c0.3-0.3,0.5-0.7,0.7-1.1s0.2-0.8,0.2-1.3v-122
							C445,241.3,444.6,240.5,444,239.9z M19.5,831L20,70.5c0-15.3,6.1-29.9,16.8-40.7c5.9-5.9,13-10.4,20.7-13.3
							c6.1-2.2,12.6-3.3,19.3-3.3l39.7,0.1c2.7,0,5.4,0.9,7.6,2.5s3.9,3.8,4.7,6.4l3.9,11.6c1,3,2.9,5.6,5.5,7.4
							c2.6,1.8,5.6,2.8,8.8,2.8h162.5c3.1,0,6.1-1,8.7-2.8c2.5-1.8,4.5-4.3,5.5-7.2l4.1-11.6c0.9-2.5,2.6-4.7,4.8-6.3
							c2.2-1.6,4.8-2.4,7.5-2.4l43.6,0.1c13.8,0,27.1,5.5,36.9,15.3s9.2,22.7,9.3,36.5l-0.5,763.6c0.1,13.9-5,27.2-14.7,37.1
							c-4.8,4.8-10.5,8.7-16.8,11.3s-13,3.9-19.8,3.9L70.8,882c-13.8,0-27.1-5.5-36.9-15.3c-2.9-2.9-5.5-6.2-7.6-9.7
							C21.8,849.2,19.5,840.2,19.5,831L19.5,831z"/>
						<g>
							<path class="st5" d="M371.5,33.7c2.2,0,4.3,0.8,5.8,2.3c0.1,0.1,0.3,0.1,0.4,0l1.1-1.2c0.1-0.1,0.1-0.1,0.1-0.2
								c0-0.1,0-0.2-0.1-0.2c-4.1-4-10.7-4-14.8,0c-0.1,0.1-0.1,0.1-0.1,0.2c0,0.1,0,0.2,0.1,0.2l1.1,1.2c0.1,0.1,0.3,0.1,0.4,0
								C367.2,34.6,369.3,33.7,371.5,33.7z M371.5,37.5c1.2,0,2.3,0.4,3.2,1.3c0.1,0.1,0.3,0.1,0.4,0l1.1-1.2
								c0.1-0.1,0.1-0.1,0.1-0.2c0-0.1,0-0.2-0.1-0.2c-2.7-2.5-6.9-2.5-9.6,0c-0.1,0.1-0.1,0.1-0.1,0.2c0,0.1,0,0.2,0.1,0.2l1.1,1.2
								c0.1,0.1,0.3,0.1,0.4,0C369.1,37.9,370.3,37.5,371.5,37.5L371.5,37.5z M373.8,40.3c0.1-0.1,0.1-0.1,0.1-0.2
								c0-0.1,0-0.2-0.1-0.2c-1.3-1.1-3.1-1.1-4.3,0c-0.1,0.1-0.1,0.1-0.1,0.2c0,0.1,0,0.2,0.1,0.2l2,2c0.1,0.1,0.1,0.1,0.2,0.1
								s0.2,0,0.2-0.1L373.8,40.3L373.8,40.3z"/>
							<path class="st5" d="M385.8,34.4c0-0.6,0.5-1.2,1.2-1.2h15.9c0.6,0,1.2,0.5,1.2,1.2v5.5c0,0.6-0.5,1.2-1.2,1.2H387
								c-0.6,0-1.2-0.5-1.2-1.2V34.4z"/>
							<path class="st7" d="M386.9,32.4h15.9c1.1,0,2,0.9,2,2v5.5c0,1.1-0.9,2-2,2h-15.9c-1.1,0-2-0.9-2-2v-5.5
								C384.9,33.3,385.8,32.4,386.9,32.4z M384,34.4c0-1.6,1.3-2.9,2.9-2.9h15.9c1.6,0,2.9,1.3,2.9,2.9v5.5c0,1.6-1.3,2.9-2.9,2.9
								h-15.9c-1.6,0-2.9-1.3-2.9-2.9V34.4z M408,37.1c0,0.9-0.6,1.6-1.4,1.8v-3.7C407.4,35.5,408,36.2,408,37.1L408,37.1z"/>
							<path class="st6" d="M356.9,32.5c-0.6,0-1,0.4-1,1v8.3c0,0.6,0.4,1,1,1h1.1c0.6,0,1-0.4,1-1v-8.3c0-0.6-0.4-1-1-1H356.9
								L356.9,32.5z M351.3,35.6c0-0.6,0.4-1,1-1h1.1c0.6,0,1,0.4,1,1v6.2c0,0.6-0.4,1-1,1h-1.1c-0.6,0-1-0.4-1-1V35.6z M347.6,36.6
								c-0.6,0-1,0.4-1,1v4.2c0,0.6,0.4,1,1,1h1.1c0.6,0,1-0.4,1-1v-4.2c0-0.6-0.4-1-1-1H347.6z M343,42.8c-0.6,0-1-0.5-1-1v-2.6
								c0-0.6,0.5-1,1-1h1c0.6,0,1,0.5,1,1v2.6c0,0.6-0.5,1-1,1H343z"/>
							<path class="st5" d="M67.5,42.5l4.6-9v-0.1h-5.2v-1.1h6.5v1.2l-4.5,9L67.5,42.5L67.5,42.5z M75.3,41.2
								c-0.2,0-0.5-0.1-0.6-0.3c-0.2-0.2-0.3-0.4-0.3-0.6c0-0.2,0.1-0.5,0.3-0.6c0.2-0.2,0.4-0.3,0.6-0.3s0.5,0.1,0.6,0.3
								c0.2,0.2,0.3,0.4,0.3,0.6c0,0.2,0,0.3-0.1,0.4c-0.1,0.1-0.2,0.2-0.3,0.3C75.6,41.2,75.5,41.2,75.3,41.2z M75.3,36
								c-0.2,0-0.5-0.1-0.6-0.3c-0.2-0.2-0.3-0.4-0.3-0.6c0-0.2,0.1-0.5,0.3-0.6c0.2-0.2,0.4-0.3,0.6-0.3s0.5,0.1,0.6,0.3
								c0.2,0.2,0.3,0.4,0.3,0.6c0,0.2,0,0.3-0.1,0.4c-0.1,0.1-0.2,0.2-0.3,0.3C75.6,36,75.5,36,75.3,36z M81.3,42.6
								c-0.7,0-1.4-0.2-1.9-0.6c-0.5-0.4-0.9-1-1.2-1.8s-0.4-1.7-0.4-2.8s0.1-2,0.4-2.8c0.3-0.8,0.7-1.4,1.2-1.8
								c0.5-0.4,1.2-0.6,1.9-0.6s1.4,0.2,1.9,0.6c0.5,0.4,0.9,1,1.2,1.8s0.4,1.7,0.4,2.8s-0.1,2.1-0.4,2.8c-0.3,0.8-0.7,1.4-1.2,1.8
								S82,42.6,81.3,42.6z M81.3,41.5c0.7,0,1.3-0.4,1.7-1.1s0.6-1.7,0.6-3.1c0-0.9-0.1-1.6-0.3-2.3c-0.2-0.6-0.5-1.1-0.8-1.4
								c-0.3-0.3-0.8-0.5-1.3-0.5c-0.7,0-1.3,0.4-1.7,1.1S79,35.9,79,37.3c0,0.9,0.1,1.6,0.3,2.2c0.2,0.6,0.5,1.1,0.8,1.4
								C80.5,41.4,80.8,41.5,81.3,41.5L81.3,41.5z M86.5,42.5v-0.9l3.4-3.7c0.4-0.4,0.7-0.8,1-1.1s0.4-0.6,0.6-0.9
								c0.1-0.3,0.2-0.6,0.2-0.9c0-0.4-0.1-0.7-0.3-0.9c-0.2-0.3-0.4-0.5-0.7-0.6s-0.6-0.2-1-0.2s-0.7,0.1-1,0.2
								c-0.3,0.2-0.5,0.4-0.7,0.7s-0.2,0.6-0.2,1h-1.2c0-0.6,0.1-1.1,0.4-1.6c0.3-0.5,0.6-0.8,1.1-1.1s1-0.4,1.6-0.4
								s1.1,0.1,1.6,0.4s0.8,0.6,1.1,1s0.4,0.9,0.4,1.4c0,0.4-0.1,0.7-0.2,1.1c-0.1,0.4-0.4,0.8-0.7,1.2s-0.8,1-1.4,1.6l-2.4,2.4
								v0.2h4.7v1.1H86.5L86.5,42.5z"/>
						</g>
					</g>
				</g>
			</g>
		</g>
	</g>
</g>
</svg>
