<svg width="300" height="251" viewBox="0 0 300 251" fill="none" xmlns="http://www.w3.org/2000/svg">
<rect width="300" height="250" transform="translate(0 0.0333252)" fill="#1B043F"/>
<rect x="16" y="44.9572" width="226.77" height="33.2721" rx="16.636" fill="#FF4F00"/>
<circle cx="265.406" cy="61.5932" r="15.9429" stroke="#F971FF" stroke-width="1.38634"/>
<rect x="266.852" y="70.1754" width="2.82973" height="17.1028" rx="1.41487" transform="rotate(180 266.852 70.1754)" fill="#F971FF" fill-opacity="0.5"/>
<rect x="267.423" y="68.7342" width="2.82973" height="11.1959" rx="1.41487" transform="rotate(135 267.423 68.7342)" fill="#F971FF" fill-opacity="0.5"/>
<rect x="265.422" y="70.7351" width="2.82973" height="11.1959" rx="1.41487" transform="rotate(-135 265.422 70.7351)" fill="#F971FF" fill-opacity="0.5"/>
<circle cx="265.422" cy="68.7342" r="1.41487" transform="rotate(135 265.422 68.7342)" fill="#F971FF"/>
<rect x="16.6932" y="83.9224" width="110.614" height="31.8857" rx="15.9429" stroke="#F971FF" stroke-width="1.38634"/>
<path d="M52.7812 104.153V96.0874H53.9785V97.3477H54.0835C54.2516 96.9171 54.5229 96.5828 54.8975 96.3447C55.2721 96.1032 55.7219 95.9824 56.2471 95.9824C56.7792 95.9824 57.222 96.1032 57.5756 96.3447C57.9327 96.5828 58.211 96.9171 58.4106 97.3477H58.4946C58.7012 96.9311 59.011 96.6003 59.4241 96.3552C59.8372 96.1067 60.3325 95.9824 60.9102 95.9824C61.6314 95.9824 62.2213 96.2082 62.6799 96.6598C63.1385 97.1079 63.3678 97.8063 63.3678 98.7551V104.153H62.1285V98.7551C62.1285 98.1599 61.9657 97.7346 61.6401 97.479C61.3145 97.2235 60.9312 97.0957 60.4901 97.0957C59.9229 97.0957 59.4836 97.2672 59.172 97.6103C58.8604 97.9499 58.7047 98.3805 58.7047 98.9021V104.153H57.4443V98.629C57.4443 98.1704 57.2956 97.8011 56.998 97.521C56.7004 97.2375 56.3171 97.0957 55.848 97.0957C55.5259 97.0957 55.2248 97.1814 54.9447 97.353C54.6682 97.5245 54.4441 97.7626 54.2726 98.0672C54.1045 98.3682 54.0205 98.7166 54.0205 99.1122V104.153H52.7812ZM68.7198 104.321C67.9426 104.321 67.2722 104.15 66.7085 103.807C66.1484 103.46 65.716 102.977 65.4115 102.357C65.1104 101.734 64.9599 101.01 64.9599 100.183C64.9599 99.3572 65.1104 98.629 65.4115 97.9989C65.716 97.3652 66.1396 96.8716 66.6823 96.518C67.2284 96.1609 67.8656 95.9824 68.5937 95.9824C69.0138 95.9824 69.4287 96.0524 69.8383 96.1925C70.2479 96.3325 70.6207 96.56 70.9568 96.8751C71.2929 97.1867 71.5607 97.5998 71.7603 98.1144C71.9598 98.629 72.0596 99.2627 72.0596 100.015V100.541H65.8421V99.4692H70.7993C70.7993 99.0141 70.7083 98.608 70.5262 98.251C70.3477 97.8939 70.0921 97.612 69.7595 97.4055C69.4304 97.1989 69.0419 97.0957 68.5937 97.0957C68.1001 97.0957 67.673 97.2182 67.3124 97.4633C66.9553 97.7048 66.6805 98.0199 66.488 98.4085C66.2954 98.7971 66.1992 99.2137 66.1992 99.6583V100.372C66.1992 100.982 66.3042 101.498 66.5142 101.922C66.7278 102.342 67.0236 102.662 67.4017 102.883C67.7798 103.1 68.2192 103.208 68.7198 103.208C69.0454 103.208 69.3394 103.163 69.602 103.072C69.8681 102.977 70.0974 102.837 70.2899 102.652C70.4824 102.462 70.6312 102.228 70.7363 101.948L71.9336 102.284C71.8075 102.69 71.5957 103.047 71.2981 103.355C71.0006 103.66 70.633 103.898 70.1954 104.069C69.7578 104.237 69.2659 104.321 68.7198 104.321ZM76.6948 104.321C76.0226 104.321 75.4292 104.152 74.9146 103.812C74.4 103.469 73.9974 102.986 73.7068 102.363C73.4162 101.736 73.2709 100.996 73.2709 100.141C73.2709 99.2942 73.4162 98.559 73.7068 97.9359C73.9974 97.3127 74.4017 96.8314 74.9198 96.4918C75.438 96.1522 76.0366 95.9824 76.7158 95.9824C77.2409 95.9824 77.6558 96.0699 77.9603 96.245C78.2684 96.4165 78.503 96.6126 78.664 96.8331C78.8285 97.0502 78.9563 97.2287 79.0473 97.3687H79.1524V93.3988H80.3917V104.153H79.1944V102.914H79.0473C78.9563 103.061 78.8268 103.247 78.6588 103.471C78.4907 103.691 78.2509 103.889 77.9393 104.064C77.6278 104.236 77.2129 104.321 76.6948 104.321ZM76.8628 103.208C77.3599 103.208 77.78 103.079 78.1231 102.82C78.4662 102.557 78.727 102.195 78.9056 101.733C79.0841 101.267 79.1734 100.73 79.1734 100.12C79.1734 99.5183 79.0859 98.9914 78.9108 98.5398C78.7358 98.0847 78.4767 97.7311 78.1336 97.479C77.7905 97.2235 77.3669 97.0957 76.8628 97.0957C76.3377 97.0957 75.9001 97.2305 75.55 97.5C75.2034 97.7661 74.9426 98.1284 74.7676 98.587C74.596 99.0421 74.5102 99.5533 74.5102 100.12C74.5102 100.695 74.5978 101.216 74.7728 101.685C74.9514 102.151 75.2139 102.522 75.5605 102.799C75.9106 103.072 76.3447 103.208 76.8628 103.208ZM82.5378 104.153V96.0874H83.7771V104.153H82.5378ZM83.1679 94.7431C82.9263 94.7431 82.718 94.6608 82.543 94.4963C82.3715 94.3318 82.2857 94.134 82.2857 93.9029C82.2857 93.6718 82.3715 93.474 82.543 93.3095C82.718 93.145 82.9263 93.0627 83.1679 93.0627C83.4095 93.0627 83.616 93.145 83.7876 93.3095C83.9626 93.474 84.0501 93.6718 84.0501 93.9029C84.0501 94.134 83.9626 94.3318 83.7876 94.4963C83.616 94.6608 83.4095 94.7431 83.1679 94.7431ZM88.1247 104.342C87.6136 104.342 87.1498 104.246 86.7332 104.054C86.3166 103.858 85.9857 103.576 85.7407 103.208C85.4956 102.837 85.3731 102.389 85.3731 101.864C85.3731 101.402 85.4641 101.027 85.6461 100.74C85.8282 100.449 86.0715 100.222 86.3761 100.057C86.6806 99.8928 87.0167 99.7703 87.3843 99.6898C87.7554 99.6058 88.1282 99.5393 88.5028 99.4903C88.993 99.4272 89.3903 99.38 89.6949 99.3485C90.003 99.3135 90.227 99.2557 90.367 99.1752C90.5106 99.0947 90.5823 98.9546 90.5823 98.7551V98.7131C90.5823 98.1949 90.4406 97.7923 90.157 97.5053C89.8769 97.2182 89.4516 97.0747 88.8809 97.0747C88.2893 97.0747 87.8254 97.2042 87.4893 97.4633C87.1533 97.7223 86.917 97.9989 86.7804 98.293L85.6041 97.8729C85.8142 97.3827 86.0943 97.0011 86.4443 96.7281C86.7979 96.4515 87.183 96.259 87.5996 96.1504C88.0197 96.0384 88.4328 95.9824 88.8389 95.9824C89.098 95.9824 89.3956 96.0139 89.7316 96.0769C90.0712 96.1364 90.3985 96.2607 90.7136 96.4498C91.0322 96.6388 91.2965 96.9241 91.5066 97.3057C91.7166 97.6873 91.8216 98.1984 91.8216 98.8391V104.153H90.5823V103.061H90.5193C90.4353 103.236 90.2953 103.423 90.0992 103.623C89.9032 103.823 89.6424 103.992 89.3168 104.132C88.9912 104.272 88.5939 104.342 88.1247 104.342ZM88.3138 103.229C88.8039 103.229 89.217 103.133 89.5531 102.94C89.8927 102.748 90.1482 102.499 90.3198 102.195C90.4948 101.89 90.5823 101.57 90.5823 101.234V100.099C90.5298 100.162 90.4143 100.22 90.2358 100.273C90.0607 100.322 89.8577 100.365 89.6266 100.404C89.3991 100.439 89.1768 100.47 88.9597 100.498C88.7461 100.523 88.5729 100.544 88.4398 100.562C88.1177 100.604 87.8167 100.672 87.5366 100.766C87.26 100.857 87.036 100.996 86.8644 101.181C86.6964 101.363 86.6124 101.612 86.6124 101.927C86.6124 102.357 86.7717 102.683 87.0902 102.904C87.4123 103.121 87.8202 103.229 88.3138 103.229Z" fill="#F971FF"/>
<rect x="134" y="83.2292" width="149.6" height="33.2721" rx="16.636" fill="#0066FF"/>
<path d="M176.302 96.0874V97.1377H172.122V96.0874H176.302ZM173.34 94.155H174.58V101.843C174.58 102.193 174.63 102.455 174.732 102.631C174.837 102.802 174.97 102.918 175.131 102.977C175.296 103.033 175.469 103.061 175.651 103.061C175.787 103.061 175.9 103.054 175.987 103.04C176.075 103.023 176.145 103.009 176.197 102.998L176.449 104.111C176.365 104.143 176.248 104.174 176.097 104.206C175.947 104.241 175.756 104.258 175.525 104.258C175.175 104.258 174.832 104.183 174.496 104.033C174.163 103.882 173.887 103.653 173.666 103.345C173.449 103.037 173.34 102.648 173.34 102.179V94.155ZM181.166 104.321C180.389 104.321 179.718 104.15 179.155 103.807C178.594 103.46 178.162 102.977 177.857 102.357C177.556 101.734 177.406 101.01 177.406 100.183C177.406 99.3572 177.556 98.629 177.857 97.9989C178.162 97.3652 178.586 96.8716 179.128 96.518C179.674 96.1609 180.312 95.9824 181.04 95.9824C181.46 95.9824 181.875 96.0524 182.284 96.1925C182.694 96.3325 183.067 96.56 183.403 96.8751C183.739 97.1867 184.007 97.5998 184.206 98.1144C184.406 98.629 184.506 99.2627 184.506 100.015V100.541H178.288V99.4692H183.245C183.245 99.0141 183.154 98.608 182.972 98.251C182.794 97.8939 182.538 97.612 182.205 97.4055C181.876 97.1989 181.488 97.0957 181.04 97.0957C180.546 97.0957 180.119 97.2182 179.758 97.4633C179.401 97.7048 179.127 98.0199 178.934 98.4085C178.741 98.7971 178.645 99.2137 178.645 99.6583V100.372C178.645 100.982 178.75 101.498 178.96 101.922C179.174 102.342 179.47 102.662 179.848 102.883C180.226 103.1 180.665 103.208 181.166 103.208C181.491 103.208 181.785 103.163 182.048 103.072C182.314 102.977 182.543 102.837 182.736 102.652C182.928 102.462 183.077 102.228 183.182 101.948L184.38 102.284C184.253 102.69 184.042 103.047 183.744 103.355C183.447 103.66 183.079 103.898 182.641 104.069C182.204 104.237 181.712 104.321 181.166 104.321ZM189.372 104.321C188.616 104.321 187.964 104.143 187.418 103.786C186.872 103.429 186.452 102.937 186.158 102.31C185.864 101.684 185.717 100.968 185.717 100.162C185.717 99.3432 185.867 98.6203 186.169 97.9936C186.473 97.3635 186.897 96.8716 187.439 96.518C187.985 96.1609 188.623 95.9824 189.351 95.9824C189.918 95.9824 190.429 96.0874 190.884 96.2975C191.339 96.5075 191.712 96.8016 192.003 97.1797C192.293 97.5578 192.474 97.9989 192.544 98.503H191.304C191.21 98.1354 191 97.8098 190.674 97.5263C190.352 97.2392 189.918 97.0957 189.372 97.0957C188.889 97.0957 188.465 97.2217 188.101 97.4738C187.74 97.7223 187.459 98.0742 187.256 98.5293C187.056 98.9809 186.956 99.5113 186.956 100.12C186.956 100.744 187.054 101.286 187.25 101.748C187.45 102.21 187.73 102.569 188.09 102.825C188.455 103.08 188.882 103.208 189.372 103.208C189.694 103.208 189.986 103.152 190.249 103.04C190.511 102.928 190.734 102.767 190.916 102.557C191.098 102.347 191.227 102.095 191.304 101.801H192.544C192.474 102.277 192.3 102.706 192.024 103.087C191.751 103.465 191.388 103.767 190.937 103.991C190.489 104.211 189.967 104.321 189.372 104.321ZM195.299 99.3012V104.153H194.06V93.3988H195.299V97.3477H195.404C195.593 96.9311 195.876 96.6003 196.255 96.3552C196.636 96.1067 197.144 95.9824 197.777 95.9824C198.327 95.9824 198.808 96.0927 199.222 96.3132C199.635 96.5303 199.955 96.8646 200.182 97.3162C200.414 97.7643 200.529 98.335 200.529 99.0281V104.153H199.29V99.1122C199.29 98.4715 199.123 97.9761 198.791 97.6261C198.462 97.2725 198.005 97.0957 197.42 97.0957C197.014 97.0957 196.65 97.1814 196.328 97.353C196.009 97.5245 195.757 97.7748 195.572 98.1039C195.39 98.433 195.299 98.8321 195.299 99.3012ZM203.74 99.3012V104.153H202.501V96.0874H203.698V97.3477H203.803C203.992 96.9381 204.279 96.6091 204.664 96.3605C205.049 96.1084 205.546 95.9824 206.155 95.9824C206.702 95.9824 207.179 96.0944 207.589 96.3185C207.999 96.539 208.317 96.8751 208.545 97.3267C208.772 97.7748 208.886 98.342 208.886 99.0281V104.153H207.647V99.1122C207.647 98.4785 207.482 97.9849 207.153 97.6313C206.824 97.2742 206.372 97.0957 205.798 97.0957C205.403 97.0957 205.049 97.1814 204.738 97.353C204.43 97.5245 204.186 97.7748 204.008 98.1039C203.829 98.433 203.74 98.8321 203.74 99.3012ZM214.132 104.321C213.404 104.321 212.765 104.148 212.215 103.802C211.669 103.455 211.242 102.97 210.934 102.347C210.629 101.724 210.477 100.996 210.477 100.162C210.477 99.3222 210.629 98.5888 210.934 97.9621C211.242 97.3355 211.669 96.8489 212.215 96.5023C212.765 96.1557 213.404 95.9824 214.132 95.9824C214.86 95.9824 215.497 96.1557 216.043 96.5023C216.593 96.8489 217.02 97.3355 217.325 97.9621C217.633 98.5888 217.787 99.3222 217.787 100.162C217.787 100.996 217.633 101.724 217.325 102.347C217.02 102.97 216.593 103.455 216.043 103.802C215.497 104.148 214.86 104.321 214.132 104.321ZM214.132 103.208C214.685 103.208 215.14 103.066 215.497 102.783C215.854 102.499 216.118 102.126 216.29 101.664C216.462 101.202 216.547 100.702 216.547 100.162C216.547 99.6233 216.462 99.1209 216.29 98.6553C216.118 98.1897 215.854 97.8133 215.497 97.5263C215.14 97.2392 214.685 97.0957 214.132 97.0957C213.579 97.0957 213.124 97.2392 212.766 97.5263C212.409 97.8133 212.145 98.1897 211.973 98.6553C211.802 99.1209 211.716 99.6233 211.716 100.162C211.716 100.702 211.802 101.202 211.973 101.664C212.145 102.126 212.409 102.499 212.766 102.783C213.124 103.066 213.579 103.208 214.132 103.208ZM220.622 93.3988V104.153H219.383V93.3988H220.622ZM225.873 104.321C225.145 104.321 224.506 104.148 223.956 103.802C223.41 103.455 222.983 102.97 222.675 102.347C222.37 101.724 222.218 100.996 222.218 100.162C222.218 99.3222 222.37 98.5888 222.675 97.9621C222.983 97.3355 223.41 96.8489 223.956 96.5023C224.506 96.1557 225.145 95.9824 225.873 95.9824C226.601 95.9824 227.238 96.1557 227.784 96.5023C228.334 96.8489 228.761 97.3355 229.066 97.9621C229.374 98.5888 229.528 99.3222 229.528 100.162C229.528 100.996 229.374 101.724 229.066 102.347C228.761 102.97 228.334 103.455 227.784 103.802C227.238 104.148 226.601 104.321 225.873 104.321ZM225.873 103.208C226.426 103.208 226.881 103.066 227.238 102.783C227.595 102.499 227.86 102.126 228.031 101.664C228.203 101.202 228.288 100.702 228.288 100.162C228.288 99.6233 228.203 99.1209 228.031 98.6553C227.86 98.1897 227.595 97.8133 227.238 97.5263C226.881 97.2392 226.426 97.0957 225.873 97.0957C225.32 97.0957 224.865 97.2392 224.508 97.5263C224.15 97.8133 223.886 98.1897 223.715 98.6553C223.543 99.1209 223.457 99.6233 223.457 100.162C223.457 100.702 223.543 101.202 223.715 101.664C223.886 102.126 224.15 102.499 224.508 102.783C224.865 103.066 225.32 103.208 225.873 103.208ZM234.38 107.346C233.781 107.346 233.266 107.269 232.836 107.115C232.405 106.965 232.046 106.765 231.759 106.516C231.476 106.271 231.25 106.009 231.082 105.729L232.069 105.036C232.181 105.183 232.323 105.351 232.494 105.54C232.666 105.732 232.9 105.899 233.198 106.039C233.499 106.182 233.893 106.254 234.38 106.254C235.031 106.254 235.568 106.096 235.992 105.781C236.415 105.466 236.627 104.973 236.627 104.3V102.662H236.522C236.431 102.809 236.302 102.991 236.133 103.208C235.969 103.422 235.731 103.613 235.419 103.781C235.111 103.945 234.695 104.027 234.17 104.027C233.518 104.027 232.934 103.873 232.416 103.565C231.901 103.257 231.493 102.809 231.192 102.221C230.894 101.633 230.746 100.919 230.746 100.078C230.746 99.2522 230.891 98.5328 231.182 97.9201C231.472 97.304 231.876 96.8279 232.395 96.4918C232.913 96.1522 233.511 95.9824 234.191 95.9824C234.716 95.9824 235.132 96.0699 235.44 96.245C235.752 96.4165 235.99 96.6126 236.154 96.8331C236.323 97.0502 236.452 97.2287 236.543 97.3687H236.669V96.0874H237.866V104.384C237.866 105.078 237.709 105.641 237.394 106.075C237.082 106.513 236.662 106.833 236.133 107.036C235.608 107.243 235.024 107.346 234.38 107.346ZM234.338 102.914C234.835 102.914 235.255 102.8 235.598 102.573C235.941 102.345 236.202 102.018 236.38 101.591C236.559 101.164 236.648 100.653 236.648 100.057C236.648 99.4762 236.561 98.9634 236.386 98.5188C236.211 98.0742 235.951 97.7258 235.608 97.4738C235.265 97.2217 234.842 97.0957 234.338 97.0957C233.812 97.0957 233.375 97.2287 233.025 97.4948C232.678 97.7608 232.417 98.1179 232.242 98.566C232.071 99.0141 231.985 99.5113 231.985 100.057C231.985 100.618 232.072 101.113 232.248 101.543C232.426 101.971 232.689 102.307 233.035 102.552C233.385 102.793 233.819 102.914 234.338 102.914ZM240.637 107.178C240.427 107.178 240.24 107.161 240.076 107.126C239.911 107.094 239.797 107.063 239.734 107.031L240.049 105.939C240.35 106.016 240.616 106.044 240.847 106.023C241.079 106.002 241.283 105.899 241.462 105.713C241.644 105.531 241.81 105.235 241.961 104.826L242.192 104.195L239.209 96.0874H240.553L242.78 102.515H242.864L245.09 96.0874H246.435L243.011 105.33C242.857 105.746 242.666 106.091 242.439 106.364C242.211 106.641 241.947 106.846 241.646 106.979C241.348 107.112 241.012 107.178 240.637 107.178Z" fill="white"/>
<circle cx="32.636" cy="139.062" r="16.636" fill="#611BC5"/>
<path d="M39.9999 133.605C40.5267 133.078 40.5267 132.224 39.9999 131.697C39.473 131.171 38.6188 131.171 38.0919 131.697L35.057 134.732C34.5301 135.259 34.5301 136.113 35.057 136.64C35.5838 137.167 36.438 137.167 36.9649 136.64L39.9999 133.605Z" fill="white"/>
<path d="M30.2153 143.391C30.7422 142.864 30.7422 142.01 30.2153 141.483C29.6885 140.956 28.8342 140.956 28.3074 141.483L25.2724 144.518C24.7456 145.044 24.7456 145.899 25.2724 146.426C25.7993 146.952 26.6535 146.952 27.1804 146.426L30.2153 143.391Z" fill="white"/>
<path d="M38.0923 146.425C38.6192 146.952 39.4734 146.952 40.0003 146.425C40.5271 145.898 40.5271 145.044 40.0003 144.517L36.9653 141.482C36.4384 140.955 35.5842 140.955 35.0574 141.482C34.5305 142.009 34.5305 142.863 35.0574 143.39L38.0923 146.425Z" fill="white"/>
<path d="M28.3069 136.64C28.8338 137.167 29.688 137.167 30.2149 136.64C30.7417 136.114 30.7417 135.259 30.2149 134.733L27.1799 131.698C26.653 131.171 25.7988 131.171 25.272 131.698C24.7451 132.224 24.7451 133.079 25.272 133.606L28.3069 136.64Z" fill="white"/>
<path d="M33.5901 140.015C34.1169 139.488 34.1169 138.634 33.5901 138.107C33.0632 137.58 32.209 137.58 31.6821 138.107C31.1553 138.634 31.1553 139.488 31.6821 140.015C32.209 140.542 33.0632 140.542 33.5901 140.015Z" fill="white"/>
<rect x="55.8497" y="123.003" width="187.615" height="32.1168" rx="16.0584" stroke="#FF4F00" stroke-width="1.15528"/>
<circle cx="266.678" cy="139.062" r="15.9429" stroke="#F971FF" stroke-width="1.38634"/>
<circle cx="32.636" cy="177.334" r="15.9429" stroke="#F971FF" stroke-width="1.38634"/>
<rect x="53.662" y="160.698" width="154.6" height="33.2721" rx="16.636" fill="#FF4F00"/>
<path d="M104.352 182.042C103.841 182.042 103.377 181.946 102.96 181.753C102.544 181.557 102.213 181.275 101.968 180.908C101.723 180.537 101.6 180.088 101.6 179.563C101.6 179.101 101.691 178.727 101.873 178.44C102.055 178.149 102.299 177.921 102.603 177.757C102.908 177.592 103.244 177.47 103.612 177.389C103.983 177.305 104.355 177.239 104.73 177.19C105.22 177.127 105.618 177.079 105.922 177.048C106.23 177.013 106.454 176.955 106.594 176.875C106.738 176.794 106.81 176.654 106.81 176.455V176.413C106.81 175.894 106.668 175.492 106.384 175.205C106.104 174.918 105.679 174.774 105.108 174.774C104.517 174.774 104.053 174.904 103.717 175.163C103.38 175.422 103.144 175.698 103.008 175.992L101.831 175.572C102.041 175.082 102.321 174.701 102.672 174.428C103.025 174.151 103.41 173.958 103.827 173.85C104.247 173.738 104.66 173.682 105.066 173.682C105.325 173.682 105.623 173.713 105.959 173.776C106.298 173.836 106.626 173.96 106.941 174.149C107.259 174.338 107.524 174.624 107.734 175.005C107.944 175.387 108.049 175.898 108.049 176.539V181.853H106.81V180.761H106.747C106.663 180.936 106.523 181.123 106.326 181.322C106.13 181.522 105.87 181.692 105.544 181.832C105.218 181.972 104.821 182.042 104.352 182.042ZM104.541 180.929C105.031 180.929 105.444 180.832 105.78 180.64C106.12 180.447 106.375 180.199 106.547 179.894C106.722 179.59 106.81 179.269 106.81 178.933V177.799C106.757 177.862 106.642 177.92 106.463 177.972C106.288 178.021 106.085 178.065 105.854 178.103C105.626 178.138 105.404 178.17 105.187 178.198C104.973 178.222 104.8 178.243 104.667 178.261C104.345 178.303 104.044 178.371 103.764 178.466C103.487 178.557 103.263 178.695 103.092 178.881C102.924 179.063 102.84 179.311 102.84 179.626C102.84 180.057 102.999 180.382 103.317 180.603C103.64 180.82 104.047 180.929 104.541 180.929ZM113.523 173.787V174.837H109.343V173.787H113.523ZM110.561 171.854H111.801V179.542C111.801 179.892 111.851 180.155 111.953 180.33C112.058 180.502 112.191 180.617 112.352 180.677C112.516 180.733 112.69 180.761 112.872 180.761C113.008 180.761 113.12 180.754 113.208 180.74C113.295 180.722 113.365 180.708 113.418 180.698L113.67 181.811C113.586 181.842 113.469 181.874 113.318 181.905C113.168 181.94 112.977 181.958 112.746 181.958C112.396 181.958 112.053 181.883 111.717 181.732C111.384 181.582 111.107 181.352 110.887 181.044C110.67 180.736 110.561 180.347 110.561 179.878V171.854ZM118.599 173.787V174.837H114.419V173.787H118.599ZM115.638 171.854H116.877V179.542C116.877 179.892 116.928 180.155 117.029 180.33C117.134 180.502 117.267 180.617 117.428 180.677C117.593 180.733 117.766 180.761 117.948 180.761C118.085 180.761 118.197 180.754 118.284 180.74C118.372 180.722 118.442 180.708 118.494 180.698L118.746 181.811C118.662 181.842 118.545 181.874 118.394 181.905C118.244 181.94 118.053 181.958 117.822 181.958C117.472 181.958 117.129 181.883 116.793 181.732C116.46 181.582 116.184 181.352 115.963 181.044C115.746 180.736 115.638 180.347 115.638 179.878V171.854ZM123.463 182.021C122.686 182.021 122.015 181.849 121.452 181.506C120.892 181.16 120.459 180.677 120.155 180.057C119.854 179.434 119.703 178.709 119.703 177.883C119.703 177.057 119.854 176.329 120.155 175.698C120.459 175.065 120.883 174.571 121.425 174.217C121.972 173.86 122.609 173.682 123.337 173.682C123.757 173.682 124.172 173.752 124.581 173.892C124.991 174.032 125.364 174.26 125.7 174.575C126.036 174.886 126.304 175.299 126.503 175.814C126.703 176.329 126.803 176.962 126.803 177.715V178.24H120.585V177.169H125.542C125.542 176.714 125.451 176.308 125.269 175.95C125.091 175.593 124.835 175.312 124.503 175.105C124.174 174.898 123.785 174.795 123.337 174.795C122.843 174.795 122.416 174.918 122.056 175.163C121.698 175.404 121.424 175.719 121.231 176.108C121.039 176.497 120.942 176.913 120.942 177.358V178.072C120.942 178.681 121.047 179.197 121.257 179.621C121.471 180.041 121.767 180.361 122.145 180.582C122.523 180.799 122.962 180.908 123.463 180.908C123.788 180.908 124.083 180.862 124.345 180.771C124.611 180.677 124.84 180.537 125.033 180.351C125.226 180.162 125.374 179.927 125.479 179.647L126.677 179.983C126.551 180.389 126.339 180.747 126.041 181.055C125.744 181.359 125.376 181.597 124.938 181.769C124.501 181.937 124.009 182.021 123.463 182.021ZM129.631 177.001V181.853H128.392V173.787H129.589V175.047H129.694C129.884 174.638 130.171 174.309 130.556 174.06C130.941 173.808 131.438 173.682 132.047 173.682C132.593 173.682 133.071 173.794 133.481 174.018C133.89 174.239 134.209 174.575 134.436 175.026C134.664 175.474 134.778 176.041 134.778 176.728V181.853H133.538V176.812C133.538 176.178 133.374 175.684 133.045 175.331C132.716 174.974 132.264 174.795 131.69 174.795C131.294 174.795 130.941 174.881 130.629 175.052C130.321 175.224 130.078 175.474 129.899 175.803C129.721 176.132 129.631 176.532 129.631 177.001ZM140.254 173.787V174.837H136.074V173.787H140.254ZM137.293 171.854H138.532V179.542C138.532 179.892 138.583 180.155 138.684 180.33C138.789 180.502 138.922 180.617 139.083 180.677C139.248 180.733 139.421 180.761 139.603 180.761C139.74 180.761 139.852 180.754 139.939 180.74C140.027 180.722 140.097 180.708 140.149 180.698L140.401 181.811C140.317 181.842 140.2 181.874 140.05 181.905C139.899 181.94 139.708 181.958 139.477 181.958C139.127 181.958 138.784 181.883 138.448 181.732C138.115 181.582 137.839 181.352 137.618 181.044C137.401 180.736 137.293 180.347 137.293 179.878V171.854ZM141.823 181.853V173.787H143.062V181.853H141.823ZM142.453 172.443C142.211 172.443 142.003 172.36 141.828 172.196C141.657 172.031 141.571 171.833 141.571 171.602C141.571 171.371 141.657 171.174 141.828 171.009C142.003 170.844 142.211 170.762 142.453 170.762C142.695 170.762 142.901 170.844 143.073 171.009C143.248 171.174 143.335 171.371 143.335 171.602C143.335 171.833 143.248 172.031 143.073 172.196C142.901 172.36 142.695 172.443 142.453 172.443ZM148.313 182.021C147.585 182.021 146.946 181.848 146.396 181.501C145.85 181.154 145.423 180.67 145.115 180.046C144.81 179.423 144.658 178.695 144.658 177.862C144.658 177.022 144.81 176.288 145.115 175.662C145.423 175.035 145.85 174.548 146.396 174.202C146.946 173.855 147.585 173.682 148.313 173.682C149.041 173.682 149.678 173.855 150.225 174.202C150.774 174.548 151.201 175.035 151.506 175.662C151.814 176.288 151.968 177.022 151.968 177.862C151.968 178.695 151.814 179.423 151.506 180.046C151.201 180.67 150.774 181.154 150.225 181.501C149.678 181.848 149.041 182.021 148.313 182.021ZM148.313 180.908C148.866 180.908 149.321 180.766 149.678 180.482C150.035 180.199 150.3 179.826 150.471 179.364C150.643 178.902 150.729 178.401 150.729 177.862C150.729 177.323 150.643 176.82 150.471 176.355C150.3 175.889 150.035 175.513 149.678 175.226C149.321 174.939 148.866 174.795 148.313 174.795C147.76 174.795 147.305 174.939 146.948 175.226C146.591 175.513 146.326 175.889 146.155 176.355C145.983 176.82 145.897 177.323 145.897 177.862C145.897 178.401 145.983 178.902 146.155 179.364C146.326 179.826 146.591 180.199 146.948 180.482C147.305 180.766 147.76 180.908 148.313 180.908ZM154.803 177.001V181.853H153.564V173.787H154.761V175.047H154.866C155.055 174.638 155.342 174.309 155.727 174.06C156.113 173.808 156.61 173.682 157.219 173.682C157.765 173.682 158.243 173.794 158.652 174.018C159.062 174.239 159.381 174.575 159.608 175.026C159.836 175.474 159.95 176.041 159.95 176.728V181.853H158.71V176.812C158.71 176.178 158.546 175.684 158.217 175.331C157.888 174.974 157.436 174.795 156.862 174.795C156.466 174.795 156.113 174.881 155.801 175.052C155.493 175.224 155.25 175.474 155.071 175.803C154.893 176.132 154.803 176.532 154.803 177.001Z" fill="white"/>
<circle cx="229.288" cy="177.334" r="15.9429" stroke="#0066FF" stroke-width="1.38634"/>
<rect x="224.273" y="184.412" width="2.82973" height="17.1028" rx="1.41487" transform="rotate(-135 224.273 184.412)" fill="#0066FF" fill-opacity="0.5"/>
<rect x="225.696" y="183.796" width="2.82973" height="11.1959" rx="1.41487" transform="rotate(-180 225.696 183.796)" fill="#0066FF" fill-opacity="0.5"/>
<rect x="222.866" y="183.796" width="2.82973" height="11.1959" rx="1.41487" transform="rotate(-90 222.866 183.796)" fill="#0066FF" fill-opacity="0.5"/>
<circle cx="224.281" cy="182.382" r="1.41487" transform="rotate(-180 224.281 182.382)" fill="#0066FF"/>
<circle cx="266.95" cy="177.334" r="16.636" fill="#611BC5"/>
<path d="M274.314 171.878C274.841 171.351 274.841 170.496 274.314 169.97C273.787 169.443 272.933 169.443 272.406 169.97L269.371 173.005C268.844 173.531 268.844 174.386 269.371 174.912C269.898 175.439 270.752 175.439 271.279 174.912L274.314 171.878Z" fill="white"/>
<path d="M264.53 181.663C265.056 181.136 265.056 180.282 264.53 179.755C264.003 179.228 263.148 179.228 262.622 179.755L259.587 182.79C259.06 183.317 259.06 184.171 259.587 184.698C260.113 185.224 260.968 185.224 261.495 184.698L264.53 181.663Z" fill="white"/>
<path d="M272.407 184.697C272.933 185.224 273.788 185.224 274.314 184.697C274.841 184.17 274.841 183.316 274.314 182.789L271.28 179.754C270.753 179.227 269.898 179.227 269.372 179.754C268.845 180.281 268.845 181.135 269.372 181.662L272.407 184.697Z" fill="white"/>
<path d="M262.622 174.913C263.148 175.439 264.003 175.439 264.529 174.913C265.056 174.386 265.056 173.532 264.529 173.005L261.494 169.97C260.968 169.443 260.113 169.443 259.587 169.97C259.06 170.497 259.06 171.351 259.587 171.878L262.622 174.913Z" fill="white"/>
<path d="M267.905 178.287C268.431 177.76 268.431 176.906 267.905 176.379C267.378 175.852 266.523 175.852 265.997 176.379C265.47 176.906 265.47 177.76 265.997 178.287C266.523 178.814 267.378 178.814 267.905 178.287Z" fill="white"/>
<circle cx="32.636" cy="216.761" r="16.636" fill="#0066FF"/>
<circle cx="71.9081" cy="216.761" r="15.9429" stroke="#611BC5" stroke-width="1.38634"/>
<rect x="95.2372" y="200.818" width="188.104" height="31.8857" rx="15.9429" stroke="#F971FF" stroke-width="1.38634"/>
<path d="M166.792 221.217C166.036 221.217 165.385 221.039 164.838 220.681C164.292 220.324 163.872 219.833 163.578 219.206C163.284 218.579 163.137 217.863 163.137 217.058C163.137 216.239 163.288 215.516 163.589 214.889C163.893 214.259 164.317 213.767 164.859 213.414C165.406 213.057 166.043 212.878 166.771 212.878C167.338 212.878 167.849 212.983 168.304 213.193C168.759 213.403 169.132 213.697 169.423 214.075C169.713 214.453 169.894 214.895 169.964 215.399H168.724C168.63 215.031 168.42 214.706 168.094 214.422C167.772 214.135 167.338 213.991 166.792 213.991C166.309 213.991 165.885 214.117 165.521 214.369C165.161 214.618 164.879 214.97 164.676 215.425C164.476 215.877 164.376 216.407 164.376 217.016C164.376 217.639 164.474 218.182 164.67 218.644C164.87 219.106 165.15 219.465 165.511 219.721C165.875 219.976 166.302 220.104 166.792 220.104C167.114 220.104 167.406 220.048 167.669 219.936C167.931 219.824 168.154 219.663 168.336 219.453C168.518 219.243 168.647 218.991 168.724 218.697H169.964C169.894 219.173 169.72 219.601 169.444 219.983C169.171 220.361 168.808 220.662 168.357 220.886C167.909 221.107 167.387 221.217 166.792 221.217ZM171.48 221.049V212.983H172.677V214.201H172.761C172.908 213.802 173.174 213.478 173.559 213.23C173.944 212.981 174.378 212.857 174.861 212.857C174.952 212.857 175.066 212.859 175.203 212.862C175.339 212.866 175.443 212.871 175.513 212.878V214.138C175.471 214.128 175.374 214.112 175.224 214.091C175.077 214.067 174.921 214.054 174.756 214.054C174.364 214.054 174.014 214.137 173.706 214.301C173.402 214.462 173.16 214.686 172.982 214.973C172.806 215.257 172.719 215.581 172.719 215.945V221.049H171.48ZM179.822 221.217C179.045 221.217 178.375 221.046 177.811 220.702C177.251 220.356 176.819 219.873 176.514 219.253C176.213 218.63 176.062 217.905 176.062 217.079C176.062 216.253 176.213 215.525 176.514 214.895C176.819 214.261 177.242 213.767 177.785 213.414C178.331 213.057 178.968 212.878 179.696 212.878C180.116 212.878 180.531 212.948 180.941 213.088C181.35 213.228 181.723 213.456 182.059 213.771C182.395 214.082 182.663 214.495 182.863 215.01C183.062 215.525 183.162 216.158 183.162 216.911V217.436H176.945V216.365H181.902C181.902 215.91 181.811 215.504 181.629 215.147C181.45 214.79 181.195 214.508 180.862 214.301C180.533 214.095 180.144 213.991 179.696 213.991C179.203 213.991 178.775 214.114 178.415 214.359C178.058 214.601 177.783 214.916 177.59 215.304C177.398 215.693 177.302 216.109 177.302 216.554V217.268C177.302 217.877 177.407 218.394 177.617 218.817C177.83 219.237 178.126 219.558 178.504 219.778C178.882 219.995 179.322 220.104 179.822 220.104C180.148 220.104 180.442 220.058 180.704 219.967C180.971 219.873 181.2 219.733 181.392 219.547C181.585 219.358 181.734 219.124 181.839 218.844L183.036 219.18C182.91 219.586 182.698 219.943 182.401 220.251C182.103 220.555 181.735 220.794 181.298 220.965C180.86 221.133 180.368 221.217 179.822 221.217ZM187.125 221.238C186.614 221.238 186.15 221.142 185.733 220.949C185.317 220.753 184.986 220.471 184.741 220.104C184.496 219.733 184.373 219.285 184.373 218.76C184.373 218.297 184.464 217.923 184.646 217.636C184.829 217.345 185.072 217.118 185.376 216.953C185.681 216.789 186.017 216.666 186.385 216.585C186.756 216.501 187.129 216.435 187.503 216.386C187.993 216.323 188.391 216.276 188.695 216.244C189.003 216.209 189.227 216.151 189.367 216.071C189.511 215.99 189.583 215.85 189.583 215.651V215.609C189.583 215.091 189.441 214.688 189.157 214.401C188.877 214.114 188.452 213.97 187.881 213.97C187.29 213.97 186.826 214.1 186.49 214.359C186.154 214.618 185.917 214.895 185.781 215.189L184.604 214.769C184.815 214.278 185.095 213.897 185.445 213.624C185.798 213.347 186.183 213.155 186.6 213.046C187.02 212.934 187.433 212.878 187.839 212.878C188.098 212.878 188.396 212.91 188.732 212.973C189.072 213.032 189.399 213.156 189.714 213.345C190.033 213.535 190.297 213.82 190.507 214.201C190.717 214.583 190.822 215.094 190.822 215.735V221.049H189.583V219.957H189.52C189.436 220.132 189.296 220.319 189.1 220.519C188.904 220.718 188.643 220.888 188.317 221.028C187.992 221.168 187.594 221.238 187.125 221.238ZM187.314 220.125C187.804 220.125 188.217 220.029 188.553 219.836C188.893 219.643 189.149 219.395 189.32 219.09C189.495 218.786 189.583 218.465 189.583 218.129V216.995C189.53 217.058 189.415 217.116 189.236 217.168C189.061 217.217 188.858 217.261 188.627 217.3C188.399 217.335 188.177 217.366 187.96 217.394C187.746 217.419 187.573 217.44 187.44 217.457C187.118 217.499 186.817 217.567 186.537 217.662C186.26 217.753 186.036 217.891 185.865 218.077C185.697 218.259 185.613 218.507 185.613 218.823C185.613 219.253 185.772 219.579 186.091 219.799C186.413 220.016 186.821 220.125 187.314 220.125ZM196.296 212.983V214.033H192.116V212.983H196.296ZM193.334 211.051H194.574V218.739C194.574 219.089 194.624 219.351 194.726 219.526C194.831 219.698 194.964 219.813 195.125 219.873C195.29 219.929 195.463 219.957 195.645 219.957C195.781 219.957 195.893 219.95 195.981 219.936C196.069 219.918 196.139 219.904 196.191 219.894L196.443 221.007C196.359 221.039 196.242 221.07 196.091 221.102C195.941 221.137 195.75 221.154 195.519 221.154C195.169 221.154 194.826 221.079 194.49 220.928C194.157 220.778 193.88 220.548 193.66 220.24C193.443 219.932 193.334 219.544 193.334 219.075V211.051ZM197.865 221.049V212.983H199.104V221.049H197.865ZM198.495 211.639C198.253 211.639 198.045 211.557 197.87 211.392C197.698 211.227 197.612 211.03 197.612 210.799C197.612 210.568 197.698 210.37 197.87 210.205C198.045 210.041 198.253 209.958 198.495 209.958C198.736 209.958 198.943 210.041 199.114 210.205C199.289 210.37 199.377 210.568 199.377 210.799C199.377 211.03 199.289 211.227 199.114 211.392C198.943 211.557 198.736 211.639 198.495 211.639ZM207.674 212.983L204.691 221.049H203.43L200.448 212.983H201.792L204.019 219.411H204.103L206.329 212.983H207.674ZM212.107 221.217C211.329 221.217 210.659 221.046 210.095 220.702C209.535 220.356 209.103 219.873 208.798 219.253C208.497 218.63 208.347 217.905 208.347 217.079C208.347 216.253 208.497 215.525 208.798 214.895C209.103 214.261 209.526 213.767 210.069 213.414C210.615 213.057 211.252 212.878 211.981 212.878C212.401 212.878 212.815 212.948 213.225 213.088C213.635 213.228 214.007 213.456 214.344 213.771C214.68 214.082 214.947 214.495 215.147 215.01C215.347 215.525 215.446 216.158 215.446 216.911V217.436H209.229V216.365H214.186C214.186 215.91 214.095 215.504 213.913 215.147C213.734 214.79 213.479 214.508 213.146 214.301C212.817 214.095 212.429 213.991 211.981 213.991C211.487 213.991 211.06 214.114 210.699 214.359C210.342 214.601 210.067 214.916 209.875 215.304C209.682 215.693 209.586 216.109 209.586 216.554V217.268C209.586 217.877 209.691 218.394 209.901 218.817C210.115 219.237 210.41 219.558 210.788 219.778C211.167 219.995 211.606 220.104 212.107 220.104C212.432 220.104 212.726 220.058 212.989 219.967C213.255 219.873 213.484 219.733 213.677 219.547C213.869 219.358 214.018 219.124 214.123 218.844L215.32 219.18C215.194 219.586 214.982 219.943 214.685 220.251C214.387 220.555 214.02 220.794 213.582 220.965C213.145 221.133 212.653 221.217 212.107 221.217Z" fill="#F971FF"/>
<path fill-rule="evenodd" clip-rule="evenodd" d="M57.0255 17.3348C57.529 17.8383 57.529 18.6547 57.0255 19.1582L54.1249 22.0588C53.6214 22.5623 52.805 22.5623 52.3015 22.0588C51.798 21.5553 51.798 20.7389 52.3015 20.2354L55.2021 17.3348C55.7056 16.8313 56.522 16.8313 57.0255 17.3348ZM69.7161 31.7874C69.0827 31.7874 68.42 31.317 68.4076 30.5294V20.4675C68.4076 20.0514 68.082 19.711 67.6659 19.6927H62.4974C61.7727 19.6927 61.183 19.103 61.183 18.3779C61.183 17.6527 61.7727 17.1157 62.4974 17.1157H76.945C77.6697 17.1157 78.2594 17.6527 78.2594 18.3779C78.2594 19.103 77.6697 19.6923 76.945 19.6923H71.7705C71.3392 19.7114 70.9885 20.0587 70.9885 20.4671V30.5409C70.9817 30.8674 70.8488 31.1777 70.6153 31.4108C70.3045 31.7216 69.9547 31.7869 69.7161 31.7869V31.7874ZM23 30.7561C23 31.2376 23.3919 31.6294 23.8733 31.6294V31.629H35.8529C36.5776 31.629 37.1673 31.0919 37.1673 30.3672C37.1673 29.6425 36.5776 29.0528 35.8529 29.0528L26.3557 29.049C25.9277 29.049 25.5796 28.7009 25.5796 28.2729V25.6619H33.2691C33.9938 25.6619 34.5835 25.0947 34.5835 24.37C34.5835 23.6453 33.9938 23.0806 33.2691 23.0806L25.5796 23.0815V20.47C25.5796 20.054 25.9052 19.7135 26.3213 19.6952H35.8529C36.5776 19.6952 37.1673 19.1055 37.1673 18.3808C37.1673 17.6561 36.5776 17.1161 35.8529 17.1161H23.8733C23.3919 17.1161 23 17.5079 23 17.9894V30.7561ZM82.8327 30.7561C82.8327 31.2376 83.2245 31.6294 83.706 31.6294V31.629H95.6856C96.4103 31.629 97 31.0919 97 30.3672C97 29.6425 96.4103 29.0528 95.6856 29.0528L86.1883 29.049C85.7604 29.049 85.4122 28.7009 85.4122 28.2729V25.6619H93.1017C93.8265 25.6619 94.4162 25.0947 94.4162 24.37C94.4162 23.6453 93.8265 23.0806 93.1017 23.0806L85.4122 23.0815V20.47C85.4122 20.054 85.7379 19.7135 86.1539 19.6952H95.6856C96.4103 19.6952 97 19.1055 97 18.3808C97 17.6561 96.4103 17.1161 95.6856 17.1161H83.706C83.2245 17.1161 82.8327 17.5079 82.8327 17.9894V30.7561ZM47.6742 28.5102C48.1777 28.0066 48.1777 27.1902 47.6742 26.6867C47.1707 26.1832 46.3543 26.1832 45.8508 26.6867L42.9502 29.5873C42.4467 30.0908 42.4467 30.9072 42.9502 31.4107C43.4537 31.9143 44.2701 31.9143 44.7736 31.4107L47.6742 28.5102ZM57.026 31.4103C56.5224 31.9138 55.7061 31.9138 55.2025 31.4103L52.302 28.5097C51.7984 28.0062 51.7984 27.1898 52.302 26.6863C52.8055 26.1827 53.6219 26.1827 54.1254 26.6863L57.026 29.5868C57.5295 30.0904 57.5295 30.9068 57.026 31.4103ZM45.8505 22.059C46.3541 22.5625 47.1704 22.5625 47.674 22.059C48.1775 21.5554 48.1775 20.739 47.674 20.2355L44.7734 17.3349C44.2699 16.8314 43.4535 16.8314 42.95 17.3349C42.4464 17.8385 42.4464 18.6549 42.95 19.1584L45.8505 22.059ZM50.8997 23.4607C51.4032 23.9642 51.4032 24.7806 50.8997 25.2841C50.3962 25.7877 49.5798 25.7877 49.0763 25.2841C48.5727 24.7806 48.5727 23.9642 49.0763 23.4607C49.5798 22.9572 50.3962 22.9572 50.8997 23.4607Z" fill="white"/>
</svg>
