<svg width="230" height="42" viewBox="0 0 230 42" fill="none" xmlns="http://www.w3.org/2000/svg">
<path d="M0.438805 16.8487C-0.138525 17.3795 19.814 -0.253882 41.2445 18.0488C40.9674 15.9254 40.4593 13.9867 39.6049 12.0941C19.8602 -0.923211 2.4941 11.1247 2.4941 11.1247C1.57037 12.8558 0.808296 14.8637 0.438805 16.8487Z" fill="#FF4F00" stroke="#FF4F00" stroke-width="0.5177" stroke-miterlimit="10"/>
<path d="M35.8637 6.64715C22.2157 0.553932 12.0777 3.8775 6.69702 5.56237C10.3919 2.16956 15.3339 0.0692444 20.7377 0.0692444C26.7188 0.0692444 32.0765 2.585 35.8637 6.64715Z" fill="#FF4F00"/>
<path d="M41.4061 22.2725C20.4837 1.50021 0.90063 20.1491 0.0692749 20.98C0.0923681 22.6187 0.300207 24.2113 0.669698 25.7346C2.79427 21.3493 23.5089 6.13937 40.5286 26.6116C40.9443 25.2268 41.2907 23.7958 41.4061 22.2725Z" fill="#FF4F00"/>
<path d="M20.0134 23.1151C25.5096 23.0458 31.6062 25.4693 36.8715 32.3703C28.4193 32.0472 22.0456 25.5616 20.0134 23.1151ZM39.1808 30.0392C26.1562 12.1288 5.83419 21.6379 1.88525 29.0467C5.04902 36.2016 12.0694 41.2101 20.3829 41.3716C14.8867 39.2021 8.67466 33.732 6.06512 29.1852C6.80411 28.4235 7.68165 27.6619 8.65156 26.9695C10.8454 30.1546 15.8336 36.8017 26.3641 40.5869C28.3039 40.033 30.1744 39.2713 31.8371 38.2327C20.6831 36.4786 14.0092 27.985 11.8615 25.0769C12.9469 24.546 14.1247 24.1306 15.3486 23.7844C18.928 29.0698 27.3571 35.4169 34.8624 35.8785C36.6174 34.2167 38.0723 32.2087 39.1808 30.0392Z" fill="url(#paint0_linear_1_75)"/>
<path fill-rule="evenodd" clip-rule="evenodd" d="M36.8587 32.3698C37.0355 32.583 37.2063 32.7942 37.3711 33.0024C38.0492 32.0643 38.6541 31.07 39.1808 30.0392C26.1562 12.1288 5.83419 21.6379 1.88525 29.0467C2.35133 30.1008 2.90111 31.1082 3.52639 32.0605C4.27755 31.123 5.11694 30.1423 6.0659 29.1866C6.06564 29.1861 6.06538 29.1856 6.06512 29.1852C6.35334 28.8881 6.66264 28.5911 6.99027 28.2981C9.98082 25.5605 13.9713 23.2211 19.5 23C21.5026 22.9199 23.4038 23.229 25.1844 23.808C29.1614 24.9473 33.2167 27.5801 36.8715 32.3703C36.8672 32.3701 36.863 32.37 36.8587 32.3698Z" fill="#993000"/>
<path d="M66.5433 10.3689V12.7991H59.4294V32.9918H56.6899V12.7991H49.576V10.3689H66.5433Z" fill="black"/>
<path d="M72.0915 22.7408V32.9918H69.4846V10.3689H72.0915V18.4106H72.2683C72.688 17.7699 73.3103 17.1771 74.1351 16.6321C74.9673 16.0798 76.0241 15.8037 77.3054 15.8037C78.8961 15.8037 80.207 16.3486 81.2379 17.4385C82.2689 18.5211 82.7844 20.1117 82.7844 22.2106V32.9918H80.1775V22.2106C80.1775 20.9734 79.8387 20.016 79.1612 19.3385C78.4911 18.661 77.5926 18.3222 76.4659 18.3222C75.7737 18.3222 75.0925 18.4695 74.4223 18.7641C73.7522 19.0587 73.1962 19.53 72.7543 20.178C72.3125 20.8261 72.0915 21.6803 72.0915 22.7408Z" fill="black"/>
<path d="M93.6488 33.3453C92.0139 33.3453 90.6036 32.9844 89.418 32.2627C88.2397 31.5337 87.3302 30.5174 86.6896 29.2139C86.0562 27.9031 85.7396 26.3787 85.7396 24.6408C85.7396 22.9028 86.0562 21.371 86.6896 20.0455C87.3302 18.7125 88.2213 17.6742 89.3628 16.9304C90.5116 16.1792 91.8519 15.8037 93.3837 15.8037C94.2674 15.8037 95.14 15.9509 96.0016 16.2455C96.8633 16.5401 97.6476 17.0188 98.3545 17.6815C99.0615 18.337 99.6249 19.2096 100.045 20.2995C100.464 21.3821 100.674 22.7113 100.674 24.2873V25.3919H88.3796C88.5122 27.2256 89.0387 28.6211 89.9593 29.5785C90.8798 30.5285 92.1096 31.0035 93.6488 31.0035C94.6871 31.0035 95.5708 30.7825 96.2999 30.3407C97.029 29.8988 97.5592 29.236 97.8906 28.3523L100.409 29.0593C100.011 30.3407 99.2161 31.3754 98.0231 32.1633C96.8301 32.9513 95.372 33.3453 93.6488 33.3453ZM93.3837 18.1455C92.0802 18.1455 90.9829 18.58 90.0918 19.449C89.2008 20.3179 88.6484 21.5478 88.4349 23.1384H98.0231C98.0231 21.7024 97.6034 20.5131 96.7638 19.5705C95.9243 18.6205 94.7976 18.1455 93.3837 18.1455Z" fill="black"/>
<path d="M122.894 10.3689V32.9918H119.481L108.832 16.4885H108.623V32.9918H105.121V10.3689H108.545L119.216 26.9273H119.426V10.3689H122.894Z" fill="black"/>
<path d="M133.789 33.3342C132.132 33.3342 130.7 32.9808 129.492 32.2738C128.292 31.5595 127.368 30.5542 126.719 29.2581C126.071 27.962 125.747 26.4376 125.747 24.6849C125.747 22.947 126.064 21.4115 126.697 20.0786C127.331 18.7457 128.233 17.7 129.404 16.9414C130.575 16.1829 131.963 15.8037 133.568 15.8037C134.872 15.8037 136.087 16.0872 137.214 16.6542C138.348 17.2213 139.261 18.116 139.953 19.3385C140.653 20.561 141.002 22.159 141.002 24.1326V25.5576H129.083C129.216 27.1262 129.684 28.3339 130.486 29.1808C131.289 30.0203 132.386 30.4401 133.778 30.4401C134.809 30.4401 135.641 30.2155 136.275 29.7663C136.908 29.3097 137.364 28.6984 137.644 27.9326L140.781 28.7942C140.546 29.6042 140.126 30.3554 139.522 31.0476C138.918 31.7399 138.138 32.2959 137.18 32.7156C136.223 33.128 135.093 33.3342 133.789 33.3342ZM133.557 18.6868C132.401 18.6868 131.436 19.0623 130.663 19.8135C129.89 20.5646 129.389 21.6214 129.161 22.9838H137.689C137.689 21.754 137.32 20.7303 136.584 19.9129C135.847 19.0955 134.839 18.6868 133.557 18.6868Z" fill="black"/>
<path d="M164.863 16.0246L160.024 32.9918H156.965L153.562 21.117H153.297L149.906 32.9918H146.857L142.008 16.0246H145.421L148.459 28.1093H148.647L151.95 16.0246H154.943L158.213 28.0541H158.401L161.449 16.0246H164.863Z" fill="black"/>
<path d="M181.109 10.3689V14.0362H174.326V32.9918H169.996V14.0362H163.214V10.3689H181.109Z" fill="black"/>
<path d="M187.563 33.3121C185.862 33.3121 184.396 32.966 183.166 32.2738C181.944 31.5742 181.001 30.5837 180.338 29.3023C179.676 28.0209 179.344 26.4965 179.344 24.7291C179.344 23.0059 179.661 21.4741 180.294 20.1338C180.928 18.7862 181.844 17.7294 183.045 16.9635C184.245 16.1903 185.692 15.8037 187.386 15.8037C188.822 15.8037 190.111 16.1056 191.252 16.7095C192.401 17.3133 193.307 18.2191 193.97 19.4269C194.64 20.6346 194.975 22.1443 194.975 23.9559V25.7564H183.487C183.627 27.0157 184.028 28.0062 184.691 28.7279C185.361 29.4422 186.307 29.7994 187.53 29.7994C188.553 29.7994 189.323 29.5674 189.838 29.1035C190.354 28.6322 190.726 28.0798 190.954 27.4465L194.798 28.4849C194.592 29.2655 194.198 30.024 193.616 30.7604C193.042 31.4968 192.254 32.1081 191.252 32.5941C190.258 33.0728 189.028 33.3121 187.563 33.3121ZM187.353 19.2833C186.366 19.2833 185.552 19.5926 184.912 20.2112C184.271 20.8298 183.836 21.695 183.608 22.807H190.91C190.91 21.8055 190.597 20.9697 189.971 20.2995C189.352 19.622 188.48 19.2833 187.353 19.2833Z" fill="black"/>
<path d="M211.661 21.4373L207.673 22.0338C207.474 21.2311 207.117 20.572 206.601 20.0565C206.086 19.541 205.357 19.2833 204.414 19.2833C203.148 19.2833 202.198 19.7619 201.564 20.7193C200.938 21.6693 200.625 22.9322 200.625 24.5082C200.625 26.0989 200.938 27.3802 201.564 28.3523C202.19 29.317 203.14 29.7994 204.414 29.7994C205.268 29.7994 205.961 29.5748 206.491 29.1256C207.029 28.669 207.404 28.0577 207.618 27.2919L211.627 27.8663C211.289 29.4864 210.479 30.8009 209.197 31.8098C207.923 32.8114 206.329 33.3121 204.414 33.3121C202.779 33.3121 201.373 32.9366 200.195 32.1854C199.016 31.4343 198.107 30.3996 197.466 29.0814C196.833 27.7558 196.516 26.2314 196.516 24.5082C196.516 22.7997 196.836 21.2937 197.477 19.9902C198.118 18.6794 199.027 17.6558 200.206 16.9193C201.384 16.1756 202.783 15.8037 204.403 15.8037C206.333 15.8037 207.945 16.3155 209.241 17.3391C210.545 18.3627 211.351 19.7288 211.661 21.4373Z" fill="black"/>
<path d="M217.772 23.5803V32.9918H213.486V10.3689H217.651V18.024H217.827C218.299 17.3833 218.921 16.8531 219.694 16.4333C220.468 16.0135 221.377 15.8037 222.423 15.8037C223.969 15.8037 225.232 16.3412 226.212 17.4164C227.198 18.4916 227.692 20.1301 227.692 22.3321V32.9918H223.395V22.2989C223.395 21.3931 223.192 20.6751 222.787 20.1449C222.382 19.6073 221.76 19.3385 220.92 19.3385C219.941 19.3385 219.171 19.7214 218.612 20.4873C218.052 21.2458 217.772 22.2768 217.772 23.5803Z" fill="black"/>
<defs>
<linearGradient id="paint0_linear_1_75" x1="20.533" y1="19.7951" x2="20.7377" y2="33.4631" gradientUnits="userSpaceOnUse">
<stop stop-color="#AA3500"/>
<stop offset="1" stop-color="#FF4F00"/>
</linearGradient>
</defs>
</svg>
