<svg width="160" height="17" viewBox="0 0 160 17" fill="none" xmlns="http://www.w3.org/2000/svg">
<path d="M0.0390096 0.545654L6.21643 8.80545L0 15.521H1.39907L6.84154 9.64144L11.2389 15.521H16L9.47501 6.79662L15.2612 0.545654H13.8621L8.8499 5.96063L4.8001 0.545654H0.0390096ZM2.09644 1.57621H4.2837L13.9422 14.4903H11.755L2.09644 1.57621Z" fill="#1B043F"/>
<path fill-rule="evenodd" clip-rule="evenodd" d="M36 1.17959C36 0.54648 36.5292 0.0333252 37.1823 0.0333252H50.8176C51.4706 0.0333252 52 0.54648 52 1.17959V14.8871C52 15.5202 51.4705 16.0333 50.8176 16.0333H37.1823C36.5292 16.0333 36 15.5202 36 14.8871V1.17959ZM40.8499 13.4268V6.20182H38.4334V13.4268H40.8499ZM39.6418 5.21572C40.4844 5.21572 41.009 4.66039 41.009 3.96717C40.9932 3.25839 40.4844 2.71889 39.6578 2.71889C38.831 2.71889 38.2906 3.25853 38.2906 3.96717C38.2906 4.66039 38.815 5.21572 39.626 5.21572H39.6418ZM44.6039 13.427H42.1873C42.1873 13.427 42.219 6.87986 42.1873 6.20205H44.604V7.22536C44.5986 7.23361 44.5933 7.24181 44.5881 7.24994H44.604V7.22536C44.925 6.73313 45.4998 6.03249 46.782 6.03249C48.372 6.03249 49.5642 7.06525 49.5642 9.28434V13.427H47.1477V9.56166C47.1477 8.5907 46.798 7.92789 45.9234 7.92789C45.2558 7.92789 44.8581 8.37476 44.6836 8.80636C44.6197 8.9605 44.6039 9.1763 44.6039 9.39224V13.427Z" fill="#1B043F"/>
<path fill-rule="evenodd" clip-rule="evenodd" d="M80 0.0333252C84.4183 0.0333252 88 3.63693 88 8.08222C88 12.0996 85.0745 15.4295 81.25 16.0333V16.0332C81.2502 16.0332 81.2505 16.0332 81.2507 16.0331V10.4088H83.1141L83.1141 10.4086H83.1148L83.4695 8.082H81.2507V6.57221C81.2507 6.05887 81.4524 5.55595 82.0517 5.38053C82.1953 5.33857 82.3618 5.31541 82.5537 5.31541H83.5625V5.3152H83.5632V3.33441C83.5632 3.33441 82.6478 3.17721 81.7724 3.17721C81.3958 3.17721 81.046 3.22456 80.728 3.3174C79.503 3.67476 78.75 4.7072 78.75 6.30894V8.082H76.7195V8.08222H76.7187V10.4088H78.75V16.0333C74.9255 15.4295 72 12.0996 72 8.08222C72 3.63693 75.5817 0.0333252 80 0.0333252Z" fill="#1B043F"/>
<path d="M108.542 4.24166L116.667 10.7417L124.792 4.24166M108 1.53333H125.333V14.5333H108V1.53333Z" stroke="#1B043F" stroke-linejoin="bevel"/>
<path d="M159.333 12.1511V15.0333H145.333V1.03373H148.216M159.333 1.03333L150.933 9.43308M159.333 1.03333H150.933M159.333 1.03333V9.43308" stroke="#1B043F"/>
</svg>
